<mxfile host="65bd71144e">
    <diagram id="A870GLpsad6LvvxpvM8Z" name="Page-1">
        <mxGraphModel dx="1130" dy="779" grid="1" gridSize="10" guides="1" tooltips="1" connect="1" arrows="1" fold="1" page="1" pageScale="1" pageWidth="850" pageHeight="1100" math="0" shadow="0">
            <root>
                <mxCell id="0"/>
                <mxCell id="1" parent="0"/>
                <mxCell id="8" style="edgeStyle=none;html=1;exitX=0.5;exitY=0.5;exitDx=0;exitDy=0;exitPerimeter=0;entryX=0;entryY=0.5;entryDx=0;entryDy=0;" edge="1" parent="1" source="2" target="7">
                    <mxGeometry relative="1" as="geometry"/>
                </mxCell>
                <mxCell id="2" value="hráč 1" style="shape=umlActor;verticalLabelPosition=bottom;verticalAlign=top;html=1;outlineConnect=0;" vertex="1" parent="1">
                    <mxGeometry x="40" y="270" width="50" height="90" as="geometry"/>
                </mxCell>
                <mxCell id="11" style="edgeStyle=none;html=1;exitX=0.5;exitY=0.5;exitDx=0;exitDy=0;exitPerimeter=0;entryX=0;entryY=0.5;entryDx=0;entryDy=0;" edge="1" parent="1" source="5" target="10">
                    <mxGeometry relative="1" as="geometry"/>
                </mxCell>
                <mxCell id="5" value="hráč 2" style="shape=umlActor;verticalLabelPosition=bottom;verticalAlign=top;html=1;outlineConnect=0;" vertex="1" parent="1">
                    <mxGeometry x="50" y="470" width="50" height="90" as="geometry"/>
                </mxCell>
                <mxCell id="31" style="edgeStyle=none;html=1;exitX=1;exitY=0.5;exitDx=0;exitDy=0;entryX=0;entryY=0.5;entryDx=0;entryDy=0;" edge="1" parent="1" source="7" target="22">
                    <mxGeometry relative="1" as="geometry"/>
                </mxCell>
                <mxCell id="7" value="výběr kámen, nůžky a papír" style="ellipse;whiteSpace=wrap;html=1;" vertex="1" parent="1">
                    <mxGeometry x="110" y="270" width="140" height="90" as="geometry"/>
                </mxCell>
                <mxCell id="30" style="edgeStyle=none;html=1;exitX=1;exitY=0.5;exitDx=0;exitDy=0;entryX=0;entryY=0.5;entryDx=0;entryDy=0;" edge="1" parent="1" source="10" target="26">
                    <mxGeometry relative="1" as="geometry"/>
                </mxCell>
                <mxCell id="10" value="výběr kámen, nůžky a papír" style="ellipse;whiteSpace=wrap;html=1;" vertex="1" parent="1">
                    <mxGeometry x="110" y="470" width="140" height="90" as="geometry"/>
                </mxCell>
                <mxCell id="17" style="edgeStyle=none;html=1;exitX=0.5;exitY=1;exitDx=0;exitDy=0;entryX=0.5;entryY=0;entryDx=0;entryDy=0;" edge="1" parent="1" source="12" target="14">
                    <mxGeometry relative="1" as="geometry"/>
                </mxCell>
                <mxCell id="12" value="hra vyhodnotí kdo vyhral nebo pokub byla remíza" style="ellipse;whiteSpace=wrap;html=1;" vertex="1" parent="1">
                    <mxGeometry x="300" y="570" width="140" height="90" as="geometry"/>
                </mxCell>
                <mxCell id="19" style="edgeStyle=none;html=1;exitX=1;exitY=0.5;exitDx=0;exitDy=0;entryX=0;entryY=0.5;entryDx=0;entryDy=0;" edge="1" parent="1" source="14" target="18">
                    <mxGeometry relative="1" as="geometry"/>
                </mxCell>
                <mxCell id="14" value="zpráva oznamující výherce(remízu)" style="ellipse;whiteSpace=wrap;html=1;" vertex="1" parent="1">
                    <mxGeometry x="300" y="680" width="140" height="90" as="geometry"/>
                </mxCell>
                <mxCell id="18" value="reset hry" style="ellipse;whiteSpace=wrap;html=1;" vertex="1" parent="1">
                    <mxGeometry x="450" y="680" width="140" height="90" as="geometry"/>
                </mxCell>
                <mxCell id="39" style="edgeStyle=none;html=1;exitX=0.5;exitY=1;exitDx=0;exitDy=0;entryX=0.5;entryY=0;entryDx=0;entryDy=0;" edge="1" parent="1" source="20" target="37">
                    <mxGeometry relative="1" as="geometry"/>
                </mxCell>
                <mxCell id="20" value="začátek hry" style="ellipse;whiteSpace=wrap;html=1;" vertex="1" parent="1">
                    <mxGeometry x="300" y="20" width="140" height="90" as="geometry"/>
                </mxCell>
                <mxCell id="35" style="edgeStyle=none;html=1;exitX=0.5;exitY=1;exitDx=0;exitDy=0;entryX=0.5;entryY=0;entryDx=0;entryDy=0;" edge="1" parent="1" source="22" target="34">
                    <mxGeometry relative="1" as="geometry"/>
                </mxCell>
                <mxCell id="22" value="předání dat serveru co vybral hráč 1" style="ellipse;whiteSpace=wrap;html=1;" vertex="1" parent="1">
                    <mxGeometry x="300" y="270" width="140" height="90" as="geometry"/>
                </mxCell>
                <mxCell id="28" style="edgeStyle=none;html=1;exitX=0.5;exitY=1;exitDx=0;exitDy=0;entryX=0.5;entryY=0;entryDx=0;entryDy=0;" edge="1" parent="1" source="26" target="12">
                    <mxGeometry relative="1" as="geometry"/>
                </mxCell>
                <mxCell id="26" value="předání dat serveru co vybral hráč 2" style="ellipse;whiteSpace=wrap;html=1;" vertex="1" parent="1">
                    <mxGeometry x="300" y="470" width="140" height="90" as="geometry"/>
                </mxCell>
                <mxCell id="29" value="" style="shape=flexArrow;endArrow=classic;html=1;" edge="1" parent="1">
                    <mxGeometry width="50" height="50" relative="1" as="geometry">
                        <mxPoint x="520" y="660" as="sourcePoint"/>
                        <mxPoint x="450" y="70" as="targetPoint"/>
                        <Array as="points">
                            <mxPoint x="520" y="70"/>
                        </Array>
                    </mxGeometry>
                </mxCell>
                <mxCell id="36" style="edgeStyle=none;html=1;exitX=0.5;exitY=1;exitDx=0;exitDy=0;entryX=0.5;entryY=0;entryDx=0;entryDy=0;" edge="1" parent="1" source="34" target="26">
                    <mxGeometry relative="1" as="geometry"/>
                </mxCell>
                <mxCell id="34" value="čekání na výběr 2 hráče" style="ellipse;whiteSpace=wrap;html=1;" vertex="1" parent="1">
                    <mxGeometry x="300" y="370" width="140" height="90" as="geometry"/>
                </mxCell>
                <mxCell id="38" style="edgeStyle=none;html=1;exitX=0.5;exitY=1;exitDx=0;exitDy=0;entryX=0.5;entryY=0;entryDx=0;entryDy=0;" edge="1" parent="1" source="37" target="22">
                    <mxGeometry relative="1" as="geometry"/>
                </mxCell>
                <mxCell id="37" value="čekání na výběr 1 hráče" style="ellipse;whiteSpace=wrap;html=1;" vertex="1" parent="1">
                    <mxGeometry x="300" y="170" width="140" height="90" as="geometry"/>
                </mxCell>
            </root>
        </mxGraphModel>
    </diagram>
</mxfile>